<svg width="62" height="42" viewBox="0 0 62 42" fill="none" xmlns="http://www.w3.org/2000/svg">
<path d="M22.9498 9.8699C21.4161 17.6673 18.4499 25.1892 14.2472 31.9269C12.0954 35.3765 8.46835 40.2962 4.07291 40.9627C1.57891 41.3409 1.02991 38.7722 1.00247 36.7938C0.937505 32.1094 2.15228 27.5848 4.96316 23.8277C8.8838 18.5873 14.2115 15.1049 20.5152 13.5614C20.6987 13.5165 27.1285 12.062 27.1285 13.3777C27.1285 15.0515 25.0215 17.3174 28.4366 15.0857C30.6057 13.6682 32.5414 11.8576 34.3776 10.0352C36.695 7.73531 34.6078 9.88234 33.7418 10.7147C31.4342 12.9326 28.92 15.3624 27.3102 18.1711C25.5299 21.2772 29.1484 20.397 30.9802 19.9709C36.6379 18.6548 41.9768 16.2933 47.1136 13.5981C47.6823 13.2997 59.6222 6.12978 58.6142 5.38871C58.0975 5.00891 57.4966 6.0866 57.1062 6.0866C56.8234 6.0866 57.5049 5.68038 57.6876 5.46218C58.3651 4.65272 58.9485 3.77493 59.5771 2.92773" stroke="url(#paint0_linear_636_57)" stroke-linecap="round"/>
<path d="M61 1C60.8282 1.14747 60.6821 1.31261 60.5257 1.48221" stroke="url(#paint1_linear_636_57)" stroke-linecap="round"/>
<defs>
<linearGradient id="paint0_linear_636_57" x1="30.2885" y1="2.92773" x2="30.2885" y2="41.0001" gradientUnits="userSpaceOnUse">
<stop stop-color="#83F570"/>
<stop offset="1" stop-color="#188516"/>
</linearGradient>
<linearGradient id="paint1_linear_636_57" x1="60.7628" y1="1" x2="60.7628" y2="1.48221" gradientUnits="userSpaceOnUse">
<stop stop-color="#83F570"/>
<stop offset="1" stop-color="#188516"/>
</linearGradient>
</defs>
</svg>
