<svg width="206" height="133" viewBox="0 0 206 133" fill="none" xmlns="http://www.w3.org/2000/svg">
<path d="M77.8281 25.6033C72.5297 52.1144 62.2829 77.6888 47.7639 100.597C40.3303 112.326 27.8003 129.053 12.6157 131.319C3.99993 132.604 2.10331 123.871 2.00853 117.144C1.7841 101.217 5.98068 85.8338 15.6912 73.0597C29.2355 55.2423 47.6406 43.4024 69.4177 38.1543C70.0514 38.0016 92.264 33.0563 92.264 37.5299C92.264 43.2208 84.9853 50.9247 96.783 43.337C104.276 38.5176 110.963 32.3615 117.307 26.1653C125.312 18.3457 118.102 25.6456 115.11 28.4757C107.138 36.0166 98.4528 44.2778 92.8916 53.8274C86.7416 64.3881 99.2421 61.3955 105.57 59.9468C125.115 55.472 143.559 47.4427 161.305 38.2792C163.269 37.2647 204.517 12.8869 201.035 10.3673C199.25 9.07598 197.174 12.7401 195.825 12.7401C194.849 12.7401 197.203 11.359 197.834 10.6171C200.175 7.86494 202.19 4.88046 204.361 2" stroke="#C6F65D" stroke-width="3" stroke-linecap="round"/>
</svg>
