<svg width="211" height="149" viewBox="0 0 211 149" fill="none" xmlns="http://www.w3.org/2000/svg">
<rect width="107.931" height="58.9966" rx="14.1329" transform="matrix(1 -0.000192218 -0.000192107 1 51.7507 1.01459)" fill="#EA3E63"/>
<path d="M79.1899 17.1096L85.2147 17.1085L85.2104 39.2276C85.2098 42.3453 83.426 43.9045 79.8588 43.9052L74.2132 43.9063C70.6741 43.907 68.9049 42.3484 68.9055 39.2307L68.9098 17.1116L74.9346 17.1105L74.9305 38.429C74.9304 39.1312 75.2954 39.4823 76.0257 39.4821L78.048 39.4817C78.8064 39.4816 79.1856 39.1304 79.1858 38.4282L79.1899 17.1096Z" fill="#ECEAEA"/>
<path d="M98.2549 38.4246L98.2558 33.5794C98.2559 33.2143 98.1717 32.9615 98.0032 32.8211C97.8347 32.6526 97.5398 32.5684 97.1185 32.5685L93.4109 32.5692C90.0966 32.5698 88.4397 30.9972 88.4403 27.8514L88.4415 21.7423C88.4421 18.6527 90.2119 17.1075 93.7509 17.1069L98.891 17.1059C102.43 17.1052 104.199 18.6497 104.199 21.7393L104.198 25.2362L98.1732 25.2374L98.1737 22.5831C98.1738 21.8809 97.7947 21.5299 97.0363 21.53L95.6039 21.5303C94.8455 21.5305 94.4663 21.8816 94.4661 22.5838L94.4652 27.3026C94.4651 27.6677 94.5494 27.9345 94.7178 28.103C94.8863 28.2434 95.1813 28.3136 95.6026 28.3135L99.2259 28.3128C101.023 28.3124 102.315 28.7054 103.102 29.4917C103.888 30.25 104.281 31.3874 104.281 32.9042L104.28 39.2239C104.279 42.3416 102.509 43.9008 98.9701 43.9015L93.8722 43.9025C90.305 43.9032 88.5218 42.3447 88.5224 39.2269L88.523 35.7721L94.5478 35.771L94.5473 38.4253C94.5472 39.1275 94.9263 39.4785 95.6847 39.4783L97.1172 39.4781C97.8755 39.4779 98.2548 39.1268 98.2549 38.4246Z" fill="#ECEAEA"/>
<path d="M113.607 39.4749L122.202 39.4732L122.201 43.8971L107.581 43.8999L107.586 17.1042L121.869 17.1014L121.868 21.5253L113.61 21.5268L113.609 28.0572L120.645 28.0559L120.644 32.4797L113.608 32.4811L113.607 39.4749Z" fill="#ECEAEA"/>
<path d="M130.805 33.8681L130.803 43.8954L124.82 43.8966L124.826 17.1009L135.864 17.0988C139.403 17.0981 141.172 18.6426 141.172 21.7322L141.17 29.2316C141.17 31.7033 140.046 33.1922 137.799 33.6982L142.516 43.8932L136.07 43.8944L131.858 33.8679L130.805 33.8681ZM130.807 21.5235L130.806 29.6128L134.05 29.6122C134.443 29.6121 134.724 29.5418 134.893 29.4014C135.061 29.2328 135.146 28.966 135.146 28.6008L135.147 22.576C135.147 21.8738 134.782 21.5228 134.052 21.5229L130.807 21.5235Z" fill="#ECEAEA"/>
<rect width="209.866" height="58.9966" rx="14.1329" transform="matrix(1 -0.000192218 -0.000192107 1 0.774658 45.0219)" fill="#EA3E63"/>
<path d="M24.5364 83.4895L33.1312 83.4879L33.1304 87.9117L18.5107 87.9145L18.5159 61.1188L32.7985 61.1161L32.7976 65.5399L24.5399 65.5415L24.5386 72.0719L31.5746 72.0705L31.5737 76.4944L24.5377 76.4957L24.5364 83.4895Z" fill="#ECEAEA"/>
<path d="M46.8755 74.2584L53.3611 87.9078L46.6201 87.9091L43.504 79.3991L40.3425 87.9103L33.9385 87.9116L40.1344 74.2597L34.1543 61.1158L40.9375 61.1145L43.506 68.9926L46.0775 61.1135L52.5658 61.1123L46.8755 74.2584Z" fill="#ECEAEA"/>
<path d="M55.3399 61.1118L66.3783 61.1096C69.9174 61.109 71.6866 62.6534 71.686 65.7431L71.6845 73.8745C71.6839 76.9922 69.914 78.5514 66.375 78.5521L61.3192 78.5531L61.3174 87.9063L55.3347 87.9074L55.3399 61.1118ZM65.6598 73.0751L65.661 66.5869C65.6612 65.8847 65.2961 65.5337 64.5658 65.5338L61.3217 65.5344L61.32 74.1293L64.5642 74.1286C65.2945 74.1285 65.6597 73.7773 65.6598 73.0751Z" fill="#ECEAEA"/>
<path d="M80.5747 83.4788L89.1695 83.4771L89.1687 87.9009L74.549 87.9037L74.5542 61.1081L88.8368 61.1053L88.8359 65.5291L80.5781 65.5307L80.5769 72.0611L87.6128 72.0598L87.612 76.4836L80.576 76.4849L80.5747 83.4788Z" fill="#ECEAEA"/>
<path d="M97.773 77.872L97.7711 87.8993L91.7884 87.9004L91.7936 61.1048L102.832 61.1026C106.371 61.102 108.14 62.6464 108.14 65.7361L108.138 73.2355C108.138 75.7072 107.014 77.1961 104.767 77.7021L109.484 87.897L103.038 87.8983L98.8263 77.8718L97.773 77.872ZM97.7754 65.5274L97.7738 73.6167L101.018 73.6161C101.411 73.616 101.692 73.5457 101.861 73.4052C102.029 73.2367 102.114 72.9698 102.114 72.6047L102.115 66.5799C102.115 65.8777 101.75 65.5267 101.02 65.5268L97.7754 65.5274Z" fill="#ECEAEA"/>
<path d="M111.669 61.1009L117.652 61.0998L117.647 87.8955L111.664 87.8966L111.669 61.1009Z" fill="#ECEAEA"/>
<path d="M127.602 83.4697L136.197 83.4681L136.196 87.8919L121.577 87.8947L121.582 61.099L135.864 61.0963L135.864 65.5201L127.606 65.5217L127.605 72.0521L134.641 72.0507L134.64 76.4745L127.604 76.4759L127.602 83.4697Z" fill="#ECEAEA"/>
<path d="M150.028 61.0936L155.547 61.0925L155.542 87.8882L150.149 87.8892L144.296 71.8382L144.293 87.8903L138.816 87.8914L138.821 61.0957L144.256 61.0947L150.025 77.1036L150.028 61.0936Z" fill="#ECEAEA"/>
<path d="M175.151 70.4841L169.084 70.4852L169.085 66.2721C169.085 65.5699 168.72 65.2189 167.989 65.219L166.262 65.2193C165.504 65.2195 165.124 65.5707 165.124 66.2728L165.121 82.7042C165.121 83.0974 165.205 83.3782 165.374 83.5467C165.542 83.6871 165.837 83.7573 166.258 83.7572L167.986 83.7569C168.379 83.7568 168.66 83.6865 168.828 83.5461C168.997 83.3775 169.081 83.0966 169.081 82.7034L169.082 78.6166L175.149 78.6155L175.148 83.2499C175.148 86.3396 173.364 87.8848 169.797 87.8854L164.404 87.8865C160.865 87.8872 159.096 86.3427 159.096 83.253L159.099 65.7263C159.1 62.6366 160.87 61.0915 164.409 61.0908L169.802 61.0898C173.369 61.0891 175.152 62.6336 175.152 65.7232L175.151 70.4841Z" fill="#ECEAEA"/>
<path d="M184.299 83.4588L192.894 83.4572L192.893 87.881L178.273 87.8838L178.278 61.0881L192.561 61.0854L192.56 65.5092L184.302 65.5108L184.301 72.0412L191.337 72.0398L191.336 76.4636L184.3 76.465L184.299 83.4588Z" fill="#ECEAEA"/>
<rect width="138.912" height="58.9966" rx="14.1329" transform="matrix(1 -0.000192218 -0.000192107 1 35.7441 89.0126)" fill="#EA3E63"/>
<path d="M54.1912 105.109L65.356 105.107C68.9232 105.107 70.7065 106.651 70.7059 109.741L70.7025 127.225C70.7019 130.343 68.918 131.902 65.3509 131.903L54.186 131.905L54.1912 105.109ZM64.6778 126.721L64.6809 110.29C64.6811 109.587 64.302 109.236 63.5436 109.237L60.2152 109.237L60.2116 127.775L63.54 127.774C64.2984 127.774 64.6777 127.423 64.6778 126.721Z" fill="#ECEAEA"/>
<path d="M80.3654 127.476L88.9602 127.475L88.9594 131.898L74.3397 131.901L74.3449 105.106L88.6275 105.103L88.6266 109.527L80.3688 109.528L80.3676 116.059L87.4036 116.057L87.4027 120.481L80.3667 120.482L80.3654 127.476Z" fill="#ECEAEA"/>
<path d="M100.891 126.419L100.892 121.574C100.892 121.209 100.808 120.956 100.64 120.816C100.471 120.647 100.176 120.563 99.7548 120.563L96.0472 120.564C92.7329 120.564 91.076 118.992 91.0766 115.846L91.0778 109.737C91.0784 106.647 92.8482 105.102 96.3873 105.101L101.527 105.1C105.066 105.1 106.836 106.644 106.835 109.734L106.834 113.231L100.81 113.232L100.81 110.578C100.81 109.875 100.431 109.524 99.6727 109.525L98.2402 109.525C97.4818 109.525 97.1026 109.876 97.1024 110.578L97.1015 115.297C97.1015 115.662 97.1857 115.929 97.3542 116.097C97.5227 116.238 97.8176 116.308 98.2389 116.308L101.862 116.307C103.66 116.307 104.952 116.7 105.738 117.486C106.524 118.244 106.917 119.382 106.917 120.899L106.916 127.218C106.915 130.336 105.145 131.895 101.606 131.896L96.5085 131.897C92.9414 131.898 91.1581 130.339 91.1587 127.221L91.1594 123.767L97.1842 123.765L97.1837 126.42C97.1835 127.122 97.5626 127.473 98.321 127.473L99.7535 127.473C100.512 127.472 100.891 127.121 100.891 126.419Z" fill="#ECEAEA"/>
<path d="M110.349 105.099L116.332 105.098L116.326 131.893L110.344 131.894L110.349 105.099Z" fill="#ECEAEA"/>
<path d="M136.102 113.773L130.077 113.774L130.077 110.277C130.078 109.575 129.698 109.224 128.94 109.224L127.213 109.224C126.454 109.224 126.075 109.576 126.075 110.278L126.072 126.709C126.072 127.102 126.156 127.383 126.324 127.552C126.493 127.692 126.788 127.762 127.209 127.762L128.936 127.762C129.358 127.762 129.653 127.692 129.821 127.551C129.99 127.382 130.074 127.102 130.074 126.708L130.075 121.484L127.969 121.484L127.969 117.482L136.101 117.48L136.099 127.255C136.098 130.345 134.328 131.89 130.789 131.89L125.354 131.891C121.815 131.892 120.046 130.348 120.047 127.258L120.05 109.731C120.051 106.642 121.821 105.096 125.36 105.096L130.795 105.095C134.334 105.094 136.103 106.639 136.102 109.728L136.102 113.773Z" fill="#ECEAEA"/>
<path d="M150.683 105.091L156.202 105.09L156.197 131.886L150.804 131.887L144.951 115.836L144.948 131.888L139.471 131.889L139.476 105.093L144.911 105.092L150.68 121.101L150.683 105.091Z" fill="#ECEAEA"/>
</svg>
