<svg width="208" height="95" viewBox="0 0 208 95" fill="none" xmlns="http://www.w3.org/2000/svg">
<rect x="0.86084" width="159.312" height="50.7957" rx="14.1329" fill="#FFC102"/>
<path d="M22.8857 34.3719H31.4805V38.7957H16.8608V12H31.1434V16.4238H22.8857V22.9542H29.9216V27.378H22.8857V34.3719Z" fill="black"/>
<path d="M33.5104 28.2628V24.1339H44.8859V28.2628H33.5104Z" fill="black"/>
<path d="M63.9307 21.3953H57.8637V17.1822C57.8637 16.48 57.4986 16.1289 56.7683 16.1289H55.0409C54.2826 16.1289 53.9034 16.48 53.9034 17.1822V33.6135C53.9034 34.0067 53.9876 34.2876 54.1562 34.4561C54.3247 34.5966 54.6196 34.6668 55.0409 34.6668H56.7683C57.1615 34.6668 57.4424 34.5966 57.611 34.4561C57.7795 34.2876 57.8637 34.0067 57.8637 33.6135V29.5267H63.9307V34.1612C63.9307 37.2509 62.1471 38.7957 58.58 38.7957H53.1871C49.6481 38.7957 47.8786 37.2509 47.8786 34.1612V16.6345C47.8786 13.5448 49.6481 12 53.1871 12H58.58C62.1471 12 63.9307 13.5448 63.9307 16.6345V21.3953Z" fill="black"/>
<path d="M72.2388 12H77.8845C81.4235 12 83.193 13.5448 83.193 16.6345V34.1191C83.193 37.2368 81.4235 38.7957 77.8845 38.7957H72.2388C68.6717 38.7957 66.8881 37.2368 66.8881 34.1191V16.6345C66.8881 13.5448 68.6717 12 72.2388 12ZM77.1682 33.3186V17.4771C77.1682 16.7749 76.8031 16.4238 76.0728 16.4238H74.0505C73.2921 16.4238 72.9129 16.7749 72.9129 17.4771V33.3186C72.9129 34.0208 73.2921 34.3719 74.0505 34.3719H76.0728C76.8031 34.3719 77.1682 34.0208 77.1682 33.3186Z" fill="black"/>
<path d="M92.1144 38.7957H86.8058V12H93.3783L97.8022 27.1674L102.226 12H108.799V38.7957H103.49V20.8055L100.035 32.9815H95.5692L92.1144 20.8476V38.7957Z" fill="black"/>
<path d="M117.912 38.7957H112.603V12H119.176L123.6 27.1674L128.023 12H134.596V38.7957H129.287V20.8055L125.832 32.9815H121.367L117.912 20.8476V38.7957Z" fill="black"/>
<path d="M138.063 38.7957V32.5602H144.173V38.7957H138.063Z" fill="black"/>
<rect x="0.86084" y="44" width="206.382" height="50.7957" rx="14.1329" fill="#FFC102"/>
<path d="M22.8857 78.3719H31.4805V82.7957H16.8608V56H31.1434V60.4238H22.8857V66.9542H29.9216V71.378H22.8857V78.3719Z" fill="black"/>
<path d="M45.223 69.1451L51.7112 82.7957H44.9702L41.8524 74.2851L38.6926 82.7957H32.2886L38.4819 69.1451L32.4992 56H39.2824L41.8524 63.8786L44.4225 56H50.9107L45.223 69.1451Z" fill="black"/>
<path d="M53.6848 56H64.7233C68.2623 56 70.0319 57.5448 70.0319 60.6345V68.7659C70.0319 71.8836 68.2623 73.4425 64.7233 73.4425H59.6675V82.7957H53.6848V56ZM64.0071 67.9654V61.4771C64.0071 60.7749 63.6419 60.4238 62.9116 60.4238H59.6675V69.0187H62.9116C63.6419 69.0187 64.0071 68.6676 64.0071 67.9654Z" fill="black"/>
<path d="M78.9239 78.3719H87.5188V82.7957H72.8991V56H87.1817V60.4238H78.9239V66.9542H85.9599V71.378H78.9239V78.3719Z" fill="black"/>
<path d="M96.1212 72.7684V82.7957H90.1385V56H101.177C104.716 56 106.486 57.5448 106.486 60.6345V68.1339C106.486 70.6056 105.362 72.0943 103.115 72.5998L107.834 82.7957H101.388L97.1745 72.7684H96.1212ZM96.1212 60.4238V68.5131H99.3653C99.7585 68.5131 100.039 68.4429 100.208 68.3024C100.376 68.1339 100.461 67.8671 100.461 67.5019V61.4771C100.461 60.7749 100.096 60.4238 99.3653 60.4238H96.1212Z" fill="black"/>
<path d="M110.014 56H115.997V82.7957H110.014V56Z" fill="black"/>
<path d="M125.952 78.3719H134.546V82.7957H119.927V56H134.209V60.4238H125.952V66.9542H132.988V71.378H125.952V78.3719Z" fill="black"/>
<path d="M148.373 56H153.892V82.7957H148.5L142.643 66.7436V82.7957H137.166V56H142.601L148.373 72.01V56Z" fill="black"/>
<path d="M173.497 65.3953H167.431V61.1822C167.431 60.48 167.065 60.1289 166.335 60.1289H164.608C163.849 60.1289 163.47 60.48 163.47 61.1822V77.6135C163.47 78.0067 163.554 78.2876 163.723 78.4561C163.891 78.5966 164.186 78.6668 164.608 78.6668H166.335C166.728 78.6668 167.009 78.5966 167.178 78.4561C167.346 78.2876 167.431 78.0067 167.431 77.6135V73.5267H173.497V78.1612C173.497 81.2509 171.714 82.7957 168.147 82.7957H162.754C159.215 82.7957 157.445 81.2509 157.445 78.1612V60.6345C157.445 57.5448 159.215 56 162.754 56H168.147C171.714 56 173.497 57.5448 173.497 60.6345V65.3953Z" fill="black"/>
<path d="M182.648 78.3719H191.243V82.7957H176.623V56H190.906V60.4238H182.648V66.9542H189.684V71.378H182.648V78.3719Z" fill="black"/>
</svg>
