<svg width="232" height="106" viewBox="0 0 232 106" fill="none" xmlns="http://www.w3.org/2000/svg">
<g opacity="0.8">
<path d="M231.561 6.18334C231.398 10.6783 226.366 10.5278 226.202 15.0148C226.038 19.5018 230.531 19.6636 230.368 24.1585C230.205 28.6535 229.772 28.611 229.6 33.099C229.429 37.587 229.334 37.5707 229.171 42.0656C229.008 46.5605 229.529 46.592 229.366 51.0869C229.203 55.5819 224.301 55.4109 224.138 59.9058C223.975 64.4008 225.216 64.4466 225.053 68.9415C224.89 73.4365 226.532 73.4925 226.382 77.9899C226.231 82.4873 224.914 82.447 224.751 86.9419C224.589 91.4369 227.508 91.5745 227.346 96.0694C227.183 100.564 227.293 100.579 227.131 105.074C190.395 103.89 188.637 105.448 151.861 104.234C115.085 103.019 115.053 103.29 78.2389 102.125C41.4243 100.959 37.4219 98.8581 0.605469 97.6124C0.862569 90.5817 3.40484 90.6698 3.61726 83.6043C3.82969 76.5388 0.515826 76.4467 0.732721 69.3847C0.949617 62.3227 2.15146 62.3452 2.37729 55.2901C2.60312 48.235 8.52635 48.4028 8.78345 41.3721C9.04055 34.3413 4.96364 34.1514 5.16267 27.0754C5.3617 19.9995 11.9472 20.2011 12.249 13.1405C12.5509 6.07986 7.82028 7.68841 8.10873 0.617378C28.7753 1.3338 45.7004 1.7979 60.2541 2.18465C65.0803 2.29652 69.6676 2.40209 74.1232 2.52019C116.83 6.40925 166.322 8.03957 212.029 5.56652C215.113 5.65926 218.233 5.7798 221.491 5.87888C224.749 5.97795 228.104 6.10926 231.561 6.18334Z" fill="#9D9D9C"/>
<path d="M230.67 6.15813C230.538 10.6128 225.541 10.4901 225.371 14.9214C225.2 19.3527 229.696 19.5021 229.492 23.9578C229.288 28.4135 228.923 28.3745 228.739 32.7954C228.555 37.2163 228.477 37.2705 228.281 41.7252C228.085 46.1799 228.694 46.18 228.536 50.6138C228.378 55.0476 223.535 54.9297 223.34 59.3924C223.144 63.855 224.402 63.8705 224.275 68.3287C224.148 72.7868 225.723 72.8553 225.556 77.2821C225.388 81.7089 224.119 81.6989 223.956 86.1939C223.794 90.6888 226.709 90.7583 226.51 95.2254C226.312 99.6926 226.479 99.7078 226.32 104.198C189.853 102.973 188.164 104.526 151.733 103.329C115.302 102.132 115.232 102.387 78.7275 101.211C42.2224 100.035 38.2523 97.9662 1.83227 96.7918C2.06846 89.7879 4.55659 89.8627 4.82504 82.8911C5.09349 75.9195 1.69224 75.7738 1.96167 68.8102C2.2311 61.8465 3.31325 61.8477 3.57035 54.817C3.82745 47.7863 9.66018 48.0058 9.90773 41.061C10.1553 34.1163 6.07399 33.8583 6.31761 26.8817C6.56122 19.9052 13.0429 20.0835 13.3134 13.0632C13.5839 6.04284 8.93823 7.65281 9.20578 0.608643C29.7084 1.3053 46.4983 1.7864 60.8811 2.16234C65.7074 2.2742 70.2231 2.38878 74.6797 2.51483C116.952 6.38183 166.008 7.97418 211.309 5.55212C214.393 5.64485 217.512 5.76541 220.735 5.83667C223.957 5.90793 227.28 6.07157 230.67 6.15813Z" fill="#F2CB94"/>
<path d="M228.451 6.13436C228.279 10.5577 223.377 10.3868 223.245 14.8414C223.114 19.2961 227.435 19.4391 227.26 23.867C227.085 28.2948 226.692 28.2836 226.519 32.7637C226.346 37.2437 226.213 37.212 226.081 41.6666C225.95 46.1213 226.459 46.0936 226.309 50.591C226.158 55.0884 221.407 54.8622 221.212 59.3248C221.017 63.7875 222.246 63.8388 222.116 68.3014C221.985 72.764 223.531 72.7957 223.36 77.219C223.188 81.6424 221.96 81.6716 221.801 86.1621C221.641 90.6526 224.446 90.7077 224.314 95.1624C224.183 99.617 224.29 99.6358 224.088 104.107C188.385 102.916 186.727 104.501 150.984 103.278C115.24 102.055 115.208 102.418 79.437 101.203C43.6659 99.987 39.7781 97.9964 4.00396 96.8216C4.27589 89.8455 6.7248 89.8969 6.98977 82.9298C7.25474 75.9627 3.92853 75.8035 4.19001 68.8409C4.45149 61.8782 5.55301 61.873 5.77429 54.8791C5.99557 47.8851 11.7638 48.0401 12 41.0362C12.2362 34.0323 8.25506 33.9313 8.51565 26.896C8.77623 19.8608 15.147 20.0894 15.3718 13.091C15.5966 6.09259 11.0871 7.69351 11.3442 0.662772C31.5005 1.33433 47.9232 1.81718 62.0174 2.17693C66.7085 2.30579 71.1865 2.37665 75.5124 2.52318C117.021 6.38526 165.065 7.92316 209.509 5.45946C212.444 5.5871 215.542 5.66193 218.728 5.77C221.915 5.87807 225.088 6.00405 228.451 6.13436Z" fill="#E0B982"/>
<path d="M67.3101 35.514C67.3101 35.514 67.8229 35.4818 68.7019 35.4399C69.5809 35.398 71.0017 35.5262 72.6436 35.2874C74.308 34.9368 76.0023 34.861 78.2753 34.2077C80.4994 33.6816 83.0227 33.0937 85.7672 32.369C87.198 32.0881 88.7108 31.7848 90.2942 31.4645C91.8844 31.2645 93.6017 31.1131 95.4033 31.0562C97.1634 31.2831 99.0401 31.2126 100.902 31.9356C102.674 32.5137 104.41 33.1975 106.101 33.9834C107.736 34.7672 109.403 35.5832 111.129 36.2506C112.856 36.7966 114.63 37.2075 116.423 37.6322C120.151 38.3239 123.941 38.6241 127.733 38.5278C131.564 38.5912 135.171 38.2426 139.061 38.2299C142.889 38.2978 146.174 37.505 149.555 37.2898C152.933 36.6914 156.09 35.6765 159.764 35.3234C161.533 35.1882 163.308 35.17 165.079 35.2689C166.599 35.4169 168.083 35.5372 169.501 35.6699C175.058 36.243 179.632 36.2089 182.723 35.5093C183.946 35.3124 185.129 34.9208 186.229 34.3495C187.075 33.9726 187.496 33.8187 187.496 33.8187L187.928 34.2772C187.928 34.2772 187.595 34.6219 186.93 35.3193C185.959 36.3008 184.844 37.1298 183.625 37.7784C180.424 39.4773 175.343 40.8634 169.443 41.1167C166.357 41.2665 163.346 41.2374 160.599 41.6515C157.769 42.173 154.216 43.1528 150.457 43.5408C146.674 43.5723 142.571 44.0883 138.861 43.6301C134.992 43.3339 131.152 42.7477 127.372 41.8766C125.471 41.5543 123.553 41.0969 121.685 40.6131C119.816 40.1292 117.914 39.9283 116.045 39.4444C114.177 38.9606 112.322 38.6164 110.439 38.3081C108.637 37.8118 106.822 37.4989 105.07 37.1055C103.425 36.7633 101.764 36.5045 100.093 36.3301C98.5715 36.1741 97.0021 36.4764 95.53 36.4233C92.5242 36.7004 89.5621 37.0042 86.7483 37.4954C84.1028 37.9096 81.4352 38.1642 78.7599 38.2577C76.4164 38.504 74.0173 38.0384 72.293 37.8393C71.0193 37.5327 69.7701 37.1323 68.5557 36.6415C68.1023 36.4846 67.6589 36.3003 67.2279 36.0897L67.3101 35.514Z" fill="#CCA56E"/>
<path d="M23.0632 72.4239C24.341 72.3315 25.6068 72.1128 26.8421 71.771C29.1264 71.1768 32.0665 69.8136 35.8253 68.1819C39.6521 66.6103 43.7997 64.7924 48.7905 62.9694C51.4387 62.0486 54.1328 61.2663 56.8619 60.6257C59.8561 60.0107 62.9039 59.6977 65.9594 59.6916C69.269 59.651 72.0634 59.9497 74.7993 60.1024C77.6339 60.2266 80.455 60.5602 83.2395 61.1005C88.9043 62.1165 93.5214 63.7044 97.434 64.9165C101.347 66.1286 104.662 67.0847 107.059 67.6636L110.824 68.5954C110.824 68.5954 109.449 68.8047 106.879 68.9825C103.34 69.1716 99.7922 69.0353 96.2795 68.575C94.1131 68.3265 91.7903 67.9564 89.472 67.5897C87.1537 67.223 84.6302 66.7973 82.2187 66.624C80.0478 66.3721 76.8741 66.2381 74.4383 66.0962C71.753 65.9614 69.0468 65.8535 66.3371 65.7501C63.7831 65.6673 61.2267 65.8453 58.7077 66.2815C56.1878 66.6347 53.7047 67.2539 51.253 67.8328C46.3976 69.0855 41.5128 70.459 37.4758 71.2777C33.3954 72.2351 29.7138 72.9565 27.0612 72.8903C25.7156 72.8747 24.3757 72.7184 23.0632 72.4239Z" fill="#F2CB94"/>
<path d="M16.3964 76.2345C16.3964 76.2345 17.8838 75.9546 20.5049 75.4715C21.7123 75.0168 23.027 74.6455 24.5865 73.9688C26.146 73.2921 28.0515 72.475 30.0285 71.6489C32.0056 70.8228 34.1448 69.8713 36.4906 68.9584C38.8364 68.0455 41.163 67.0099 43.9703 66.2046C46.8641 65.1926 49.8485 64.4629 52.8816 64.0258C53.8208 63.9158 54.221 63.7887 55.6014 63.6555L57.88 63.6032L62.4183 63.5413C68.8172 63.9642 74.6901 64.215 80.3774 64.6951C86.0648 65.1752 91.3223 65.673 95.7932 66.2415C104.833 67.3256 110.824 68.5954 110.824 68.5954C110.824 68.5954 104.749 69.3877 95.6773 69.7451C91.1313 69.9736 85.8213 70.0962 80.1607 70.1256C74.5 70.155 68.2573 69.983 62.6001 69.6486L58.0888 69.6021L55.8649 69.5748C55.8092 69.6465 54.6966 69.7581 54.2051 69.8644C52.8649 70.0289 51.5579 70.2336 50.2296 70.3643C48.9017 70.6606 47.5935 70.9866 46.3148 71.2564C43.7379 71.8026 41.1239 72.6361 38.6677 73.2116C36.2115 73.787 33.8681 74.3926 31.637 74.9276C29.5332 75.4466 27.4807 75.8259 25.5693 76.1713C23.9106 76.4521 22.2359 76.6276 20.5554 76.6968C17.9144 76.4959 16.3964 76.2345 16.3964 76.2345Z" fill="#CCA56E"/>
<path d="M139.169 69.0772C139.169 69.0772 139.479 69.0665 140.044 69.0398C140.927 68.968 141.815 69.0069 142.687 69.1557C143.79 69.2956 145.163 69.559 146.672 69.8781C148.345 70.2272 150.038 70.4715 151.741 70.6097C153.62 70.8499 155.689 71.0662 157.843 71.3405C160.015 71.5075 162.304 71.5347 164.644 71.7169C169.277 72.16 174.393 71.5852 179.567 72.0249C182.207 72.3188 184.657 72.3419 187.417 72.8509C188.627 73.2398 189.768 73.6456 190.979 74.0424C192.135 74.5755 193.308 75.1791 194.465 75.7201C196.615 76.847 198.551 78.1018 200.441 79.027C202.254 80.2004 204.141 80.5769 206.015 81.2943C207.784 81.5928 209.376 82.0346 210.965 82.1781C212.553 82.3216 213.803 82.5037 214.913 82.6346C217.162 82.8686 218.404 82.987 218.404 82.987L214.885 83.2237C213.762 83.2558 212.43 83.2538 210.867 83.317C209.059 83.3193 207.252 83.1915 205.463 82.9347C203.708 82.4244 201.504 82.1039 199.458 81.0649C197.377 80.2362 195.338 79.1883 193.233 78.1608C192.212 77.6754 191.171 77.2247 190.154 76.7348C188.964 76.42 187.779 76.044 186.576 75.7188C184.422 75.3719 181.749 75.3042 179.372 75.0862C176.944 74.7777 174.327 74.8686 171.82 74.8083C169.354 74.8283 166.889 74.6891 164.441 74.3915C160.067 73.9896 155.725 73.293 151.446 72.3065C149.712 72.025 148.01 71.5764 146.363 70.967C144.896 70.4366 143.613 69.9842 142.593 69.7369C141.767 69.4578 140.911 69.2741 140.043 69.1894C139.425 69.0894 139.169 69.0772 139.169 69.0772Z" fill="#CCA56E"/>
</g>
</svg>
