<svg width="231" height="111" viewBox="0 0 231 111" fill="none" xmlns="http://www.w3.org/2000/svg">
<rect width="230.734" height="110.53" rx="14.1329" fill="#70CCC4"/>
<path d="M34.9001 34.5629V29.5492C34.9001 28.8471 34.5209 28.496 33.7625 28.496H30.3077V35.6162H33.7625C34.5209 35.6162 34.9001 35.2651 34.9001 34.5629ZM34.9001 45.9806V40.7562C34.9001 40.3911 34.8158 40.1383 34.6473 39.9979C34.4788 39.8294 34.1838 39.7451 33.7625 39.7451H30.3077V47.0339H33.7625C34.5209 47.0339 34.9001 46.6828 34.9001 45.9806ZM24.3672 24.3671H35.4899C39.0571 24.3671 40.8406 25.9119 40.8406 29.0015V33.7203C40.8406 35.7988 40.2087 37.1048 38.9447 37.6385C40.2087 38.116 40.8406 39.3238 40.8406 41.2618V46.4861C40.8406 49.6039 39.0571 51.1627 35.4899 51.1627H24.3672V24.3671Z" fill="black"/>
<path d="M50.3871 41.1354V51.1627H44.4044V24.3671H55.4428C58.9819 24.3671 60.7514 25.9119 60.7514 29.0015V36.501C60.7514 38.9727 59.6279 40.4613 57.3809 40.9669L62.0996 51.1627H55.6535L51.4403 41.1354H50.3871ZM50.3871 28.7909V36.8801H53.6312C54.0244 36.8801 54.3053 36.8099 54.4738 36.6695C54.6423 36.501 54.7266 36.2341 54.7266 35.869V29.8442C54.7266 29.142 54.3615 28.7909 53.6312 28.7909H50.3871Z" fill="black"/>
<path d="M76.3717 51.1627L75.4448 46.3176H69.3357L68.4088 51.1627H62.4683L68.5352 24.3671H76.2032L82.4386 51.1627H76.3717ZM70.1784 41.9359H74.56L72.3692 30.6025L70.1784 41.9359Z" fill="black"/>
<path d="M95.7269 24.3671H101.246V51.1627H95.8533L89.997 35.1106V51.1627H84.5199V24.3671H89.9548L95.7269 40.3771V24.3671Z" fill="black"/>
<path d="M105.305 24.3671H116.469C120.037 24.3671 121.82 25.9119 121.82 29.0015V46.4861C121.82 49.6039 120.037 51.1627 116.469 51.1627H105.305V24.3671ZM115.795 45.9806V29.5492C115.795 28.8471 115.416 28.496 114.658 28.496H111.329V47.0339H114.658C115.416 47.0339 115.795 46.6828 115.795 45.9806Z" fill="black"/>
<path d="M125.585 24.3671H131.567V51.1627H125.585V24.3671Z" fill="black"/>
<path d="M146.704 24.3671H152.224V51.1627H146.831L140.975 35.1106V51.1627H135.497V24.3671H140.932L146.704 40.3771V24.3671Z" fill="black"/>
<path d="M171.829 33.0462H165.804V29.5492C165.804 28.8471 165.425 28.496 164.666 28.496H162.939C162.181 28.496 161.801 28.8471 161.801 29.5492V45.9806C161.801 46.3738 161.886 46.6547 162.054 46.8232C162.223 46.9636 162.518 47.0339 162.939 47.0339H164.666C165.088 47.0339 165.383 46.9636 165.551 46.8232C165.72 46.6547 165.804 46.3738 165.804 45.9806V40.7562H163.697V36.7537H171.829V46.5283C171.829 49.6179 170.059 51.1627 166.52 51.1627H161.085C157.546 51.1627 155.777 49.6179 155.777 46.5283V29.0015C155.777 25.9119 157.546 24.3671 161.085 24.3671H166.52C170.059 24.3671 171.829 25.9119 171.829 29.0015V33.0462Z" fill="black"/>
<path d="M197.814 51.1627H187.576C184.009 51.1627 182.225 49.6039 182.225 46.4861V43.3263C182.225 42.0904 182.464 41.1354 182.942 40.4613C183.419 39.7872 184.627 38.8744 186.565 37.7228C185.469 36.515 184.683 35.5319 184.205 34.7736C183.756 34.0152 183.531 33.2007 183.531 32.3299V29.0015C183.531 25.9119 185.315 24.3671 188.882 24.3671H193.474C196.985 24.3671 198.741 25.9119 198.741 29.0015V32.2878C198.741 33.7765 198.432 34.928 197.814 35.7426C197.224 36.5571 196.213 37.4138 194.781 38.3126L193.98 38.8182L198.614 44.0004V40.9248H203.375V46.4861C203.375 47.3288 203.221 48.1012 202.912 48.8034L206.367 52.6795H200.3L198.867 51.1206C198.643 51.1487 198.291 51.1627 197.814 51.1627ZM189.43 29.465V32.6249C189.43 33.4113 189.851 34.268 190.694 35.1949C191.593 34.6331 192.196 34.1837 192.505 33.8467C192.842 33.4815 193.011 32.99 193.011 32.3721V29.465C193.011 29.0718 192.927 28.8049 192.758 28.6645C192.59 28.496 192.295 28.4117 191.873 28.4117H190.525C190.132 28.4117 189.851 28.496 189.683 28.6645C189.514 28.8049 189.43 29.0718 189.43 29.465ZM189.093 47.0339H195.118L189.851 41.2618L189.008 41.7674C188.306 42.1887 187.955 42.8207 187.955 43.6633V45.9806C187.955 46.6828 188.334 47.0339 189.093 47.0339Z" fill="black"/>
<path d="M24.4936 59.3671H30.4763V86.1627H24.4936V59.3671Z" fill="black"/>
<path d="M34.7013 59.3671H45.8661C49.4333 59.3671 51.2168 60.9119 51.2168 64.0015V81.4861C51.2168 84.6039 49.4333 86.1627 45.8661 86.1627H34.7013V59.3671ZM45.192 80.9806V64.5492C45.192 63.8471 44.8128 63.496 44.0545 63.496H40.7261V82.0339H44.0545C44.8128 82.0339 45.192 81.6828 45.192 80.9806Z" fill="black"/>
<path d="M60.8798 81.7389H69.4746V86.1627H54.855V59.3671H69.1376V63.7909H60.8798V70.3213H67.9158V74.7451H60.8798V81.7389Z" fill="black"/>
<path d="M83.3014 59.3671H88.8206V86.1627H83.4277L77.5715 70.1106V86.1627H72.0944V59.3671H77.5293L83.3014 75.3771V59.3671Z" fill="black"/>
<path d="M106.74 59.3671V63.7909H101.811V86.1627H95.7861V63.7909H90.8989V59.3671H106.74Z" fill="black"/>
<path d="M108.962 59.3671H114.945V86.1627H108.962V59.3671Z" fill="black"/>
<path d="M133.031 59.3671V63.7909H128.102V86.1627H122.077V63.7909H117.19V59.3671H133.031Z" fill="black"/>
<path d="M146.081 86.1627H140.057V77.4836L133.315 59.3671H139.467L143.048 71.9644L146.376 59.3671H152.527L146.081 77.5258V86.1627Z" fill="black"/>
</svg>
