<svg width="496" height="134" viewBox="0 0 496 134" fill="none" xmlns="http://www.w3.org/2000/svg">
<g clip-path="url(#clip0_252_42)">
<path d="M496 133.31V16.8115C492.691 12.6337 490.951 5.73734 489.162 11.6542C480.164 19.2003 477.815 13.3933 468.847 6.38702C461.199 -2.23846 456.69 -2.3484 448.602 5.73736C439.805 27.9957 438.285 17.3512 427.608 8.23602C421.25 17.3013 413.922 8.34598 408.273 16.0519C405.124 12.204 396.656 38.4702 392.587 27.5659C391.337 26.8063 386.349 36.6212 377.981 40.699C375.312 31.3639 373.262 28.9152 370.983 31.5238C368.703 34.1324 366.364 41.8884 362.885 53.0226C359.886 53.9421 357.296 57.6301 354.747 61.3282C352.188 56.7706 350.618 58.4497 345.949 62.2477C344.54 59.4791 341.061 69.0841 338.831 69.0241C335.202 71.203 333.183 63.7169 331.673 67.5149C329.384 65.9358 329.384 82.8669 325.425 69.8537C323.425 72.3424 318.906 68.8542 316.947 71.5828C314.068 66.0457 310.599 71.153 307.339 69.8537C303.051 71.5828 299.342 66.3156 297.512 72.6222C296.642 67.7848 293.993 75.111 289.154 71.4229C286.005 73.2619 284.265 89.0636 279.487 97.2094C278.357 100.298 272.109 113.921 264.721 115.72C191.85 133.57 8.00788 134.06 4.8587 132.481C3.12916 134.87 1.3796 133.95 -0.0300293 133.311C4.85871 -65.9763 -0.0300293 133.34 -0.0300293 133.34L496 133.31Z" fill="#EDEDED"/>
<path d="M496 134V59.7888C490.841 58.0597 484.873 53.3322 481.504 53.0124C474.766 35.5316 465.758 61.318 458.7 51.5931C449.522 39.6594 442.894 51.2233 435.516 53.9919C425.628 49.2044 419.93 73.8015 410.103 61.1981C405.434 76.1903 394.577 61.5779 388.498 71.3528C380.73 93.0214 374.162 92.7415 367.324 83.0766C356.886 85.0756 351.618 110.762 343.33 95.3003C336.172 105.995 330.253 100.837 319.556 105.445C307.169 97.4491 304.51 103.056 293.443 115.71C281.176 108.593 270.629 149.042 266.67 126.124C265.866 126.766 264.991 127.313 264.061 127.753C264.061 127.753 240.877 133.95 158.089 128.753C151.5 131 121.288 133.93 121.288 133.93L496 134Z" fill="black"/>
</g>
<defs>
<clipPath id="clip0_252_42">
<rect width="496" height="134" fill="white" transform="matrix(-1 0 0 1 496 0)"/>
</clipPath>
</defs>
</svg>
