<svg width="496" height="99" viewBox="0 0 496 99" fill="none" xmlns="http://www.w3.org/2000/svg">
<g clip-path="url(#clip0_252_45)">
<path d="M496.147 162.685L2.19495 162.054L0 16.3591C2.05397 16.3052 4.07389 16.898 5.78152 18.0559C11.3141 16.1527 13.9729 8.19616 15.8398 14.5477C16.2018 0.0790873 18.4081 15.5107 22.402 5.61658C25.2418 7.85221 32.4829 4.01153 34.5873 2.53257C39.6786 -5.3552 42.7335 7.95538 46.5576 5.19237C50.0311 4.04589 54.0249 9.85857 58.1659 10.3974C59.9536 20.7157 66.6741 12.633 70.5096 13.6992C75.4992 20.5781 79.3347 7.73758 83.849 14.9719C88.0013 12.0942 93.6244 22.745 96.5095 19.5577C101.531 21.6261 106.088 24.7031 109.905 28.6035C115.63 34.783 118.142 32.2149 123.482 37.7753C127.85 42.8886 133.665 49.0566 137.829 45.1242C141.608 46.179 148.962 39.8046 154.053 48.7471C160.038 40.7218 162.663 50.9713 167.336 47.0389C169.916 50.5471 174.792 37.5575 180.788 44.3676C183.617 40.3319 187.928 47.5662 190.236 43.9433C193.336 42.8886 198.484 49.9051 199.74 42.8886C201.425 47.4746 204.367 45.3306 207.049 40.011C210.25 39.8046 210.669 48.4261 214.244 36.5027C219.336 42.5676 220.173 36.7091 224.427 34.8977C227.471 41.2835 232.664 34.6913 234.248 36.1702C238.23 36.5027 240.12 47.2452 245.109 40.5498C247.893 30.7474 252.26 47.7841 255.043 44.8032C258.347 47.3599 261.243 54.9152 267.375 44.2759C272.365 41.2836 276.302 47.2453 280.036 41.0772C283.973 41.9256 289.755 34.5881 292.595 38.0963C293.108 38.8072 293.773 39.3913 294.541 39.8046C297.267 41.616 299.53 39.6899 302.777 36.0785C303.517 35.3716 304.22 34.6253 304.882 33.8429C305.197 34.5822 305.575 35.292 306.013 35.9639C307.801 38.4173 310.064 37.2479 311.478 34.8174C312.599 33.038 313.184 30.9666 313.164 28.8557C313.164 28.741 319.726 15.8546 320.993 23.3182C322.984 18.0903 325.609 4.79112 328.913 17.2419C333.371 17.1387 335.057 5.77712 336.833 11.6127C343.18 17.0355 344.821 12.8853 351.224 7.77195C356.633 1.6039 359.778 1.60392 365.514 7.34778C371.76 23.3182 372.8 15.6483 380.426 9.15919C384.884 15.6483 390.088 9.1592 394.082 14.7999C396.345 12.0369 402.33 30.8506 405.215 22.9972C406.053 22.4698 409.628 29.4863 415.557 32.4671C417.457 25.7602 418.872 23.9488 420.444 25.8634C422.017 27.778 423.703 33.3155 426.169 41.295C428.319 41.937 430.152 44.5969 431.939 47.2567C433.784 43.9548 434.836 45.1357 438.151 47.8987C439.192 45.8809 441.613 52.7942 443.231 52.691C445.765 54.2961 447.168 48.965 448.277 51.6363C449.906 50.5586 449.906 62.6883 452.69 53.333C454.059 55.1445 457.317 52.5764 458.686 54.6056C460.723 50.5586 463.212 54.2961 465.475 53.333C468.473 54.6056 471.132 50.7649 472.41 55.3508C473.044 51.8426 474.922 57.1623 478.339 54.5024C480.601 55.775 482.389 51.9458 485.738 57.8043C489.313 67.3774 489.732 65.5659 492.628 64.1902C493.884 65.887 495.05 65.2564 496.147 64.7176C496.147 -101.858 496.147 162.685 496.147 162.685Z" fill="#EDEDED"/>
<path d="M496.023 188.864H0V46.374C0.949113 45.6082 1.8273 45.3089 2.46648 44.4594C10.2959 33.4876 13.5543 37.9703 18.9059 38.3945C24.2688 57.128 27.7309 42.2238 34.8701 36.801C43.1181 33.3615 46.535 34.6685 50.5289 42.4416C52.4636 61.4961 57.9283 29.3374 62.4992 47.7613C69.0614 36.4799 68.8012 49.7791 74.5827 49.8822C80.0927 39.5639 85.8969 51.6937 87.9674 52.6567C94.1675 47.2224 98.1501 59.3522 104.939 58.0796C109.193 60.8541 115.234 56.165 121.536 63.5139C125.575 60.0057 131.142 66.9534 137.976 68.6158C144.595 72.7775 148.588 67.0336 154.359 71.1724C162.086 68.6157 165.017 71.0692 171.058 70.1176C176.263 65.8527 181.773 66.4948 188.029 67.4578C193.811 77.8908 198.586 60.7394 205.419 64.8897C212.298 65.6464 217.231 66.7011 223.216 64.1559C227.889 71.9291 232.833 59.0426 233.987 66.1737C235.775 67.4578 241.704 75.6551 244.385 69.1546C249.59 65.9674 250.687 68.1916 255.518 69.8998C259.15 66.7011 264.128 71.8144 267.805 66.8158C275.273 61.8057 275.838 63.5139 281.156 61.5878C286.813 56.6924 289.506 61.7024 293.443 56.2681C293.706 55.747 294.063 55.2804 294.495 54.8924C296.962 51.9116 299.847 51.3842 302.732 51.0632C303.864 51.0632 304.893 50.9485 305.934 50.9485C307.333 50.7719 308.698 50.3855 309.985 49.802C310.45 49.9055 310.933 49.9055 311.399 49.802C317.339 49.1715 321.163 38.1996 326.107 44.5855C329.422 50.5472 338.134 41.6161 342.083 41.2837C346.857 28.7297 353.216 47.2454 358.205 40.2289C364.711 31.7106 369.384 39.9079 374.588 41.9257C381.614 38.4863 385.665 56.1879 392.6 47.1422C395.904 57.8961 403.575 47.4632 407.942 54.3764C413.396 69.9227 418.068 69.7163 422.899 62.7916C430.254 64.282 434.033 82.6945 439.871 71.6195C444.973 79.2895 449.182 75.5634 456.74 78.8653C465.509 73.1329 467.341 77.157 475.216 86.2027C483.883 81.1009 491.35 110.164 494.178 93.7695C494.762 94.2008 494.178 97.7494 496.023 94.916V188.864Z" fill="black"/>
</g>
<defs>
<clipPath id="clip0_252_45">
<rect width="496" height="99" fill="white"/>
</clipPath>
</defs>
</svg>
