<svg width="496" height="135" viewBox="0 0 496 135" fill="none" xmlns="http://www.w3.org/2000/svg">
<g clip-path="url(#clip0_252_52)">
<path d="M0.310003 146.635L0.309998 93.2003C0.309998 93.2003 6.12228 93.4864 10.8778 92.1605C10.8778 91.5404 16.642 87.3907 21.6377 92.4943C27.498 96.415 32.6474 93.391 30.2841 89.5085C39.5741 84.0233 39.6702 82.9358 41.1017 85.0631C41.7645 81.9914 43.6284 83.222 50.9105 79.3394C52.0881 77.5798 53.5373 76.0153 55.2049 74.7033C58.1543 72.1467 65.2539 72.2421 71.6906 71.4408C74.2557 78.7671 78.2138 64.105 80.7885 71.4408C83.9301 79.1487 85.1694 63.4945 86.2646 73.7589C85.3039 81.9914 85.3039 81.5145 88.8393 76.4967C93.5467 79.3586 95.7468 87.2858 99.5608 77.7273C95.718 70.9162 98.7058 76.8306 103.509 76.0293C106.468 88.0871 110.753 73.0434 112.895 72.0513C112.942 70.8882 112.815 69.7247 112.521 68.5981C113.093 68.3421 113.635 68.0221 114.135 67.6441C117.478 53.7356 119.188 84.8151 126.672 64.7155C130.62 65.1353 130.909 68.9701 138.104 65.6694C140.285 60.7948 143.062 59.3734 145.579 72.9957C150.824 93.0285 152.304 91.5881 155.724 95.566C158.606 107.767 162.593 116.429 172.315 110.419C177.176 112.127 187.552 109.99 192.231 105.544C203.759 95.8999 213.184 96.9588 216.95 92.0174C226.24 105.64 228.056 69.0273 229.103 76.2678C231.293 64.0573 234.012 61.2241 233.051 71.0592C237.432 66.5184 245.54 40.9719 252.265 54.079C258.03 59.8027 263.554 30.0874 272.565 53.9837C276.129 40.9719 290.146 49.7195 294.805 52.3715C301.915 63.6757 304.413 45.2264 310.177 45.8942C314.077 39.8843 319.169 36.288 325.183 39.9798C330.851 52.8962 337.326 38.463 340.852 37.3278C344.849 46.085 352.477 36.0018 357.242 38.6538C360.768 49.1472 368.482 51.761 373.574 41.2103C379.098 47.4014 379.002 35.4867 389.579 43.0038C396.256 52.1807 403.212 36.0018 407.977 43.2422C408.504 44.0031 409.153 44.6734 409.898 45.2264C410.284 45.6138 410.744 45.9219 411.25 46.1331C411.756 46.3442 412.299 46.4543 412.848 46.457C417.901 46.1709 421.244 35.3913 424.866 40.9719C429.247 43.9482 436.289 45.2265 441.246 35.811C444.484 36.9939 451.343 23.2762 458.395 26.968C465.552 28.6755 469.356 31.1272 470.98 16.8943C472.498 17.3141 476.888 6.00982 481.836 4.39766C486.889 -2.23025e-05 492.404 0.992101 495.651 0V146.635H0.310003Z" fill="#EDEDED"/>
<path d="M0.000531945 93.4858L10.4071 111.249C10.4071 111.249 12.9818 109.932 22.2718 104.571C27.844 110.581 36.2789 101.118 45.7611 91.092C58.2503 80.7799 63.1979 81.6289 64.908 83.5177C71.6329 92.8855 77.2531 72.9671 86.4951 84.9868C91.1642 107.557 99.6857 89.2414 105.93 90.0522C111.176 83.3746 115.701 92.2749 124.606 98.3801C129.237 115.551 134.656 118.527 143.821 109.589C148.25 113.748 157.348 125.72 162.074 120.846C168.982 140.287 170.317 126.149 177.446 126.426C185.131 129.784 188.215 145.505 193.547 123.917C203.99 108.549 204.605 114.836 214.183 110.915C218.468 120.235 227.758 97.5598 232.187 97.1496C237.615 82.621 244.532 87.2095 250.863 84.1855C259.298 80.7799 265.274 77.3744 269.453 72.5951C276.831 70.0386 281.874 81.8197 288.888 64.2195C293.797 44.8258 302.04 70.3247 307.612 60.6708C310.945 64.7442 321.283 60.8616 326.384 59.7741C333.109 30.0588 338.105 59.8695 346.098 59.3448C353.918 68.474 361.258 60.8616 369.933 57.5991C376.879 57.1221 384.123 42.6985 394.412 54.1459C400.128 44.8258 404.605 43.786 409.85 45.2933C410.811 45.6271 411.772 46.0564 412.8 46.5238C414.808 47.2393 416.902 48.2791 419.188 49.2712C424.146 33.512 435.52 55.2811 443.581 43.4045C454.735 58.1143 458.452 36.2594 467.502 36.7269C475.985 40.7907 482.557 25.9378 489.503 27.6454C491.04 23.1904 493.221 21.3016 495.603 20.5957L495.603 147.698C495.603 147.698 0.662067 147.556 0.000653853 147.698L0.000653854 147.698C-0.000231208 147.698 -0.00023042 147.698 0.000653853 147.698L0.000531945 93.4858Z" fill="black"/>
</g>
<defs>
<clipPath id="clip0_252_52">
<rect width="496" height="135" fill="white"/>
</clipPath>
</defs>
</svg>
